<svg id="visual" viewBox="0 0 675 900" width="675" height="900" xmlns="http://www.w3.org/2000/svg" xmlns:xlink="http://www.w3.org/1999/xlink" version="1.1"><rect x="0" y="0" width="675" height="900" fill="#278ca2"></rect><path d="M0 255L22.5 251.2C45 247.3 90 239.7 135 239.5C180 239.3 225 246.7 270 251C315 255.3 360 256.7 405 239.2C450 221.7 495 185.3 540 179.2C585 173 630 197 652.5 209L675 221L675 901L652.5 901C630 901 585 901 540 901C495 901 450 901 405 901C360 901 315 901 270 901C225 901 180 901 135 901C90 901 45 901 22.5 901L0 901Z" fill="#c8eff8"></path><path d="M0 277L22.5 296.8C45 316.7 90 356.3 135 354C180 351.7 225 307.3 270 305C315 302.7 360 342.3 405 336.7C450 331 495 280 540 257.5C585 235 630 241 652.5 244L675 247L675 901L652.5 901C630 901 585 901 540 901C495 901 450 901 405 901C360 901 315 901 270 901C225 901 180 901 135 901C90 901 45 901 22.5 901L0 901Z" fill="#b0dee9"></path><path d="M0 457L22.5 459.7C45 462.3 90 467.7 135 467.7C180 467.7 225 462.3 270 442.8C315 423.3 360 389.7 405 367.8C450 346 495 336 540 344.8C585 353.7 630 381.3 652.5 395.2L675 409L675 901L652.5 901C630 901 585 901 540 901C495 901 450 901 405 901C360 901 315 901 270 901C225 901 180 901 135 901C90 901 45 901 22.5 901L0 901Z" fill="#98cdda"></path><path d="M0 422L22.5 447.5C45 473 90 524 135 533.7C180 543.3 225 511.7 270 508.2C315 504.7 360 529.3 405 527C450 524.7 495 495.3 540 476.2C585 457 630 448 652.5 443.5L675 439L675 901L652.5 901C630 901 585 901 540 901C495 901 450 901 405 901C360 901 315 901 270 901C225 901 180 901 135 901C90 901 45 901 22.5 901L0 901Z" fill="#7fbdcc"></path><path d="M0 616L22.5 621.7C45 627.3 90 638.7 135 635C180 631.3 225 612.7 270 606C315 599.3 360 604.7 405 598.2C450 591.7 495 573.3 540 579.7C585 586 630 617 652.5 632.5L675 648L675 901L652.5 901C630 901 585 901 540 901C495 901 450 901 405 901C360 901 315 901 270 901C225 901 180 901 135 901C90 901 45 901 22.5 901L0 901Z" fill="#65acbe"></path><path d="M0 755L22.5 738.2C45 721.3 90 687.7 135 668.8C180 650 225 646 270 651.2C315 656.3 360 670.7 405 677.2C450 683.7 495 682.3 540 691.5C585 700.7 630 720.3 652.5 730.2L675 740L675 901L652.5 901C630 901 585 901 540 901C495 901 450 901 405 901C360 901 315 901 270 901C225 901 180 901 135 901C90 901 45 901 22.5 901L0 901Z" fill="#4a9cb0"></path><path d="M0 790L22.5 792.2C45 794.3 90 798.7 135 790.5C180 782.3 225 761.7 270 761.2C315 760.7 360 780.3 405 785.5C450 790.7 495 781.3 540 770.7C585 760 630 748 652.5 742L675 736L675 901L652.5 901C630 901 585 901 540 901C495 901 450 901 405 901C360 901 315 901 270 901C225 901 180 901 135 901C90 901 45 901 22.5 901L0 901Z" fill="#278ca2"></path></svg>